<svg xmlns="http://www.w3.org/2000/svg" viewBox="0 0 32 32" width="32" height="32">
  <defs>
    <!-- Gradient for the outer ring -->
    <radialGradient id="outerGrad" cx="50%" cy="50%" r="50%">
      <stop offset="0%" style="stop-color:#667eea;stop-opacity:0.8"/>
      <stop offset="100%" style="stop-color:#764ba2;stop-opacity:1"/>
    </radialGradient>
    
    <!-- Gradient for the inner elements -->
    <linearGradient id="innerGrad" x1="0%" y1="0%" x2="100%" y2="100%">
      <stop offset="0%" style="stop-color:#48bb78;stop-opacity:1"/>
      <stop offset="100%" style="stop-color:#38a169;stop-opacity:1"/>
    </linearGradient>
    
    <!-- Glow effect -->
    <filter id="glow">
      <feGaussianBlur stdDeviation="1" result="coloredBlur"/>
      <feMerge> 
        <feMergeNode in="coloredBlur"/>
        <feMergeNode in="SourceGraphic"/>
      </feMerge>
    </filter>
  </defs>
  
  <!-- Dark background circle -->
  <circle cx="16" cy="16" r="15" fill="#2d3748" stroke="#4a5568" stroke-width="1"/>
  
  <!-- Outer radius ring -->
  <circle cx="16" cy="16" r="12" fill="none" stroke="url(#outerGrad)" stroke-width="1.5" opacity="0.7"/>
  
  <!-- Middle radius ring -->
  <circle cx="16" cy="16" r="8" fill="none" stroke="url(#outerGrad)" stroke-width="1" opacity="0.5"/>
  
  <!-- Inner radius ring -->
  <circle cx="16" cy="16" r="5" fill="none" stroke="url(#innerGrad)" stroke-width="1" opacity="0.8"/>
  
  <!-- Central lock symbol (cryptic) -->
  <g transform="translate(16,16)" filter="url(#glow)">
    <!-- Lock body -->
    <rect x="-2" y="-1" width="4" height="3" rx="0.5" fill="url(#innerGrad)"/>
    <!-- Lock shackle -->
    <path d="M -1.5,-2.5 A 1.5,1.5 0 0,1 1.5,-2.5 L 1.5,-1.5" 
          fill="none" stroke="url(#innerGrad)" stroke-width="0.8" stroke-linecap="round"/>
    <!-- Key hole -->
    <circle cx="0" cy="0" r="0.4" fill="#2d3748"/>
  </g>
  
  <!-- Radius indicator lines (cryptic pattern) -->
  <g stroke="url(#innerGrad)" stroke-width="0.5" opacity="0.6">
    <line x1="16" y1="4" x2="16" y2="7" stroke-linecap="round"/>
    <line x1="28" y1="16" x2="25" y2="16" stroke-linecap="round"/>
    <line x1="16" y1="28" x2="16" y2="25" stroke-linecap="round"/>
    <line x1="4" y1="16" x2="7" y2="16" stroke-linecap="round"/>
  </g>
  
  <!-- Cryptic dots around the perimeter -->
  <g fill="url(#innerGrad)" opacity="0.4">
    <circle cx="23.3" cy="8.7" r="0.5"/>
    <circle cx="23.3" cy="23.3" r="0.5"/>
    <circle cx="8.7" cy="23.3" r="0.5"/>
    <circle cx="8.7" cy="8.7" r="0.5"/>
  </g>
</svg> 